<svg width="100" height="100" viewBox="0 0 20 20" xmlns="http://www.w3.org/2000/svg"><g clip-path="url(#clip0)"><path d="M9.904.436c-.153 0-.305.076-.457.153l-6.705 3.2c-.381.152-.61.457-.686.838L.38 11.789c-.076.304 0 .685.152.99l.077.076 4.647 5.715c.229.304.61.457.99.457h7.391c.381 0 .762-.153.99-.457l4.648-5.715c.229-.305.305-.686.229-1.066l-1.676-7.162a1.098 1.098 0 00-.686-.838l-6.705-3.2c-.076-.153-.305-.229-.533-.153z" fill="#326CE5"/><path d="M9.98 2.874c-.229 0-.381.229-.381.457v.076c0 .153 0 .229.076.381 0 .305.076.534.076.762 0 .076-.076.153-.152.229v.152c-.229 0-.457.076-.686.076-1.066.229-1.904.762-2.59 1.524-.076 0-.153-.076-.153-.076h-.228a3.314 3.314 0 00-.533-.457 1.052 1.052 0 01-.229-.305l-.076-.076c-.076-.076-.153-.076-.305-.076s-.229.076-.305.152c-.152.152-.076.457.076.61l.077.076c.076.076.228.152.304.228.229.153.458.305.61.381.076.076.076.153.076.229l.152.152a5.356 5.356 0 00-.838 3.581l-.152.076c-.076.077-.076.153-.152.153-.229.076-.458.076-.686.152h-.457c-.229.076-.381.305-.305.457.076.229.305.381.533.305h.077c.152 0 .228-.076.38-.152l.686-.229c.076 0 .153.076.229.076h.152c.381 1.22 1.22 2.21 2.286 2.896l-.076.152c0 .076.076.152 0 .229-.077.228-.229.38-.381.685-.076.076-.153.229-.229.305 0 0 0 .076-.076.076-.076.229 0 .457.152.534.229.076.457 0 .534-.23 0 0 0-.075.076-.075.076-.153.076-.229.152-.381.076-.229.153-.534.305-.686.076-.076.076-.076.152-.076l.077-.152c.914.38 1.98.457 2.971.228l.686-.228c0 .076.076.152.076.152.076 0 .152 0 .229.152.076.153.152.381.304.686.076.152.076.229.153.38 0 0 0 .077.076.077.076.229.38.305.533.229.229-.076.305-.381.152-.534 0 0 0-.076-.076-.076-.076-.152-.152-.228-.228-.305a6.666 6.666 0 01-.381-.61v-.228l-.076-.152a5.059 5.059 0 002.285-2.895h.153c.076-.077.152-.077.228-.077.229 0 .457.077.686.23.152.075.229.075.381.152h.076c.229.076.457-.077.534-.305.076-.229-.077-.457-.305-.457h-.533c-.305 0-.534-.077-.686-.153-.076 0-.153-.152-.153-.152l-.152-.076c.076-.61.076-1.22-.076-1.829-.153-.61-.381-1.219-.762-1.752a.164.164 0 00.152-.153c0-.076 0-.152.076-.228a1.66 1.66 0 01.61-.381c.076-.076.229-.076.305-.229l.076-.076c.228-.152.228-.381.076-.61-.152-.152-.38-.152-.61 0l-.076.077a1.05 1.05 0 00-.228.304c-.229.229-.381.381-.534.458-.076.076-.228 0-.228 0l-.152.076a5.003 5.003 0 00-3.353-1.6v-.153c-.076-.076-.152-.076-.152-.228 0-.229 0-.457.076-.762 0-.153.076-.229.076-.381V3.56c-.076-.534-.228-.686-.457-.686zm-.457 3.048L9.37 8.055c0 .152-.152.305-.38.305-.077 0-.153 0-.23-.076l-1.75-1.22a3.885 3.885 0 011.98-1.066c.23 0 .381-.076.534-.076zm.99 0c.915.076 1.753.533 2.362 1.143L11.2 8.284c-.152.076-.38.076-.457-.077-.076-.076-.076-.152-.076-.228l-.153-2.057zm-4.038 1.98l1.6 1.372c.153.152.153.305.076.457L8 9.884l-1.98.61c-.23-.915 0-1.83.456-2.591zm7.01 0c.228.382.38.763.533 1.296.076.457.152.914.076 1.371l-2.057-.61c-.152-.075-.305-.228-.229-.38 0-.076.077-.153.077-.153l1.6-1.523zM9.675 9.35h.61l.38.534-.152.61-.61.304-.609-.305-.152-.61.533-.533zm2.057 1.753h.077l2.057.38a4.057 4.057 0 01-1.676 2.058l-.839-1.981a.366.366 0 01.153-.457h.228zm-3.504 0c.152 0 .304.076.304.304v.229L7.77 13.54a4.057 4.057 0 01-1.676-2.057l2.134-.381zm1.752.838h.152c.077 0 .153.076.153.152l.99 1.829c-.152.076-.305.076-.38.076-.763.152-1.525.152-2.286-.153l.99-1.828c.152 0 .229-.076.381-.076z" fill="#fff" stroke="#fff" stroke-width=".2"/></g><defs><clipPath id="clip0"><path fill="#fff" d="M.4.4h19.2v18.667H.4z"/></clipPath></defs></svg>